<svg xmlns="http://www.w3.org/2000/svg" width="208.046" height="38.592" viewBox="0 0 208.046 38.592"><g transform="translate(0 41.633)"><g transform="translate(77.575 -41.633)"><g transform="translate(0 0)"><circle cx="13.644" cy="13.644" r="13.644" transform="translate(0 19.296) rotate(-45)" fill="#2cacb3"/></g></g><g transform="translate(85.98 -32.926)"><g transform="translate(0 0)"><path d="M644.188,22.5a11.12,11.12,0,0,0-7.7,3.014,10.184,10.184,0,0,0-3.19,7.453,10.526,10.526,0,0,0,3.19,7.616,11.12,11.12,0,0,0,15.4,0,10.526,10.526,0,0,0,3.19-7.616,10.258,10.258,0,0,0-3.19-7.453A11.12,11.12,0,0,0,644.188,22.5Zm0,19.061a8.5,8.5,0,0,1-8.594-8.594,8.6,8.6,0,0,1,17.188,0A8.5,8.5,0,0,1,644.188,41.561Z" transform="translate(-633.3 -22.5)" fill="#fff"/></g></g><g transform="translate(0 -33.74)"><path d="M14.934,62.73l2.1.312c-.937,3.693-3.679,5.5-8.336,5.5C2.851,68.527,0,65.663,0,59.77S2.851,51,8.7,51c4.643,0,7.386,1.806,8.336,5.5l-2.1.312c-.747-2.58-2.688-3.883-6.232-3.883-4.67,0-6.585,2.118-6.585,6.829s1.9,6.829,6.585,6.829C12.246,66.6,14.187,65.31,14.934,62.73Z" transform="translate(0 -46.316)" fill="#262833"/><path d="M160.262,51.4v1.928h-.041c-4.67.054-6.557,2.186-6.5,6.883v7.983H151.6V52.079h2.118V54.4c1.086-1.969,3.1-2.96,6.476-3Z" transform="translate(-131.018 -46.662)" fill="#262833"/><path d="M251.208,56.314V67c0,7.06-1.493,11.445-8.906,11.445H236.98V76.515H242.3c4.277,0,6.1-1.616,6.612-6.15-1.113,1.846-3.068,2.756-6.313,2.756h-.217c-5.851-.068-8.675-2.96-8.594-8.838V56.314h2.118V64.3c-.054,4.7,1.833,6.829,6.5,6.883s6.612-2.036,6.666-6.734V56.3h2.132Z" transform="translate(-202.047 -50.897)" fill="#262833"/><path d="M412.205,60.027c.068,5.879-2.742,8.77-8.594,8.838h-.217c-3.421,0-5.4-1.018-6.476-3.068v8.54H394.8V52.071h2.118v2.322c1.086-1.969,3.1-2.96,6.476-3C409.232,51.325,412.137,54.148,412.205,60.027Zm-2.118.027c-.054-4.63-1.928-6.734-6.462-6.734h-.2c-4.67.054-6.557,2.186-6.5,6.883s2,6.788,6.666,6.734S410.141,64.752,410.087,60.054Z" transform="translate(-341.2 -46.654)" fill="#262833"/><path d="M542.878,34.994V45.665a1.591,1.591,0,0,0,1.588,1.588h1.371v1.928h-.828a4.247,4.247,0,0,1-4.25-4.249V34.994H537.8V33.066h2.96V30.459l2.118-1.059v3.666h2.96v1.928Z" transform="translate(-464.786 -27.649)" fill="#262833"/><path d="M860.3,29.873c.068,5.879-2.742,8.77-8.594,8.838h-.217c-3.421,0-5.4-1.018-6.476-3.068v2.4H842.9V16.5h2.118v7.725c1.086-1.969,3.1-2.96,6.476-3C857.332,21.17,860.237,23.994,860.3,29.873Zm-2.131.027c-.054-4.63-1.928-6.734-6.462-6.734h-.2c-4.67.054-6.557,2.186-6.5,6.883s2,6.788,6.653,6.734C856.354,36.729,858.228,34.6,858.174,29.9Z" transform="translate(-728.464 -16.5)" fill="#262833"/><path d="M1014.8,56.4V72.529h-2.118V70.167c-1.086,2.036-3.122,3.041-6.585,3.041-5.852,0-8.7-2.865-8.7-8.743V56.4h2.118v8.064h0c0,4.7,1.9,6.8,6.585,6.8s6.585-2.1,6.585-6.8h0V56.4Z" transform="translate(-861.988 -50.983)" fill="#262833"/><path d="M1173.894,56.314V67c0,7.06-1.493,11.445-8.906,11.445h-5.308V76.515H1165c4.276,0,6.1-1.616,6.612-6.15-1.113,1.846-3.068,2.756-6.313,2.756h-.217c-5.851-.068-8.676-2.96-8.594-8.838V56.314h2.118V64.3c-.054,4.7,1.832,6.829,6.5,6.883s6.612-2.036,6.666-6.734V56.3h2.118Z" transform="translate(-999.477 -50.897)" fill="#262833"/><path d="M1330.357,61.007h-15.219a6.264,6.264,0,0,0,1.534,4.127,6.656,6.656,0,0,0,4.9,1.724h.19a6.8,6.8,0,0,0,5.05-1.846,4.3,4.3,0,0,0,.828-1.29l2.159.312a6.706,6.706,0,0,1-1.453,2.43c-1.439,1.521-3.584,2.281-6.558,2.308s-5.131-.665-6.612-2.159c-1.439-1.453-2.158-3.571-2.186-6.476-.068-5.879,2.742-8.77,8.594-8.838h.217c2.864,0,4.955.706,6.408,2.159a8.437,8.437,0,0,1,2.159,5.621c.014.285.027.57.041.869-.027.367-.027.72-.054,1.059Zm-15.233-1.928h13.087a6.224,6.224,0,0,0-1.534-4.114,6.835,6.835,0,0,0-5.091-1.724c-4.29.054-6.232,1.874-6.462,5.838Z" transform="translate(-1134.733 -46.575)" fill="#262833"/><path d="M1477.262,51.4v1.928h-.041c-4.67.054-6.557,2.186-6.5,6.883v7.983H1468.6V52.079h2.118V54.4c1.086-1.969,3.1-2.96,6.476-3Z" transform="translate(-1269.216 -46.662)" fill="#262833"/></g><circle cx="8.703" cy="8.703" r="8.703" transform="translate(88.166 -31.039)" fill="#f7c906"/><g transform="translate(95.728 -27.93)"><g transform="translate(0 0)"><rect width="2.267" height="2.267" fill="#fff"/></g><g transform="translate(0 2.973)"><rect width="2.267" height="2.267" fill="#fff"/></g><g transform="translate(0 5.933)"><rect width="2.267" height="2.267" fill="#fff"/></g><g transform="translate(0 8.906)"><rect width="2.267" height="2.267" fill="#fff"/></g></g></g></svg>