<svg id="Grupo_144" data-name="Grupo 144" xmlns="http://www.w3.org/2000/svg" width="319.552" height="59.259" viewBox="0 0 319.552 59.259">
  <g id="Grupo_126" data-name="Grupo 126" transform="translate(119.161 0)">
    <g id="Grupo_125" data-name="Grupo 125" transform="translate(0 0)">
      <g id="Grupo_124" data-name="Grupo 124" transform="translate(0)">
        <circle id="Elipse_28" data-name="Elipse 28" cx="20.951" cy="20.951" r="20.951" transform="translate(0 29.63) rotate(-45)" fill="#279ea4"/>
      </g>
    </g>
  </g>
  <g id="Grupo_129" data-name="Grupo 129" transform="translate(132.067 13.366)">
    <g id="Grupo_128" data-name="Grupo 128">
      <g id="Grupo_127" data-name="Grupo 127">
        <path id="Trazado_356" data-name="Trazado 356" d="M290.088,102.706a17.016,17.016,0,0,0-11.818,4.637,15.665,15.665,0,0,0-4.906,11.444,16.2,16.2,0,0,0,4.9,11.691,17.074,17.074,0,0,0,23.641,0,16.2,16.2,0,0,0,4.9-11.691,15.665,15.665,0,0,0-4.906-11.444A17.015,17.015,0,0,0,290.088,102.706Zm0,29.29a13.063,13.063,0,0,1-13.2-13.209,13.2,13.2,0,0,1,26.394,0A13.063,13.063,0,0,1,290.088,132Z" transform="translate(-273.365 -102.706)" fill="#fff"/>
      </g>
    </g>
  </g>
  <g id="Grupo_130" data-name="Grupo 130" transform="translate(0 12.128)">
    <path id="Trazado_357" data-name="Trazado 357" d="M207.645,124.708l3.231.469c-1.442,5.67-5.658,8.453-12.795,8.453-9,0-13.37-4.405-13.37-13.465s4.372-13.465,13.37-13.465c7.137,0,11.353,2.783,12.795,8.453l-3.231.469c-1.138-3.964-4.132-5.954-9.565-5.954-7.179,0-10.108,3.251-10.108,10.5s2.929,10.5,10.108,10.5C203.512,130.662,206.508,128.671,207.645,124.708Z" transform="translate(-184.711 -99.513)" fill="#fff"/>
    <path id="Trazado_358" data-name="Trazado 358" d="M219.24,106.754v2.963h-.057C212,109.8,209.1,113.08,209.189,120.3v12.271h-3.255V107.795h3.255v3.565c1.661-3.018,4.746-4.545,9.956-4.608Z" transform="translate(-174.318 -99.487)" fill="#fff"/>
    <path id="Trazado_359" data-name="Trazado 359" d="M244.192,107.452v16.421c0,10.852-2.288,17.58-13.677,17.58h-8.171v-2.969h8.171c6.565,0,9.372-2.474,10.163-9.455-1.7,2.833-4.719,4.231-9.692,4.231h-.326c-8.995-.109-13.316-4.551-13.208-13.586v-12.22h3.262v12.26c-.088,7.218,2.807,10.495,9.984,10.58s10.154-3.118,10.239-10.337v-12.5Z" transform="translate(-168.679 -99.144)" fill="#fff"/>
    <path id="Trazado_360" data-name="Trazado 360" d="M266.714,120.017c.109,9.034-4.211,13.477-13.208,13.585h-.326c-5.247,0-8.307-1.564-9.953-4.719V142h-3.253V107.8h3.253v3.565c1.662-3.018,4.748-4.545,9.957-4.608C262.151,106.644,266.605,110.982,266.714,120.017Zm-3.262.039c-.086-7.115-2.966-10.337-9.923-10.337-.1,0-.2,0-.307,0-7.177.086-10.07,3.362-9.984,10.58s3.066,10.429,10.23,10.339S263.538,127.275,263.452,120.056Z" transform="translate(-157.649 -99.487)" fill="#fff"/>
    <path id="Trazado_361" data-name="Trazado 361" d="M267.8,112.268V128.66a2.448,2.448,0,0,0,2.448,2.448h2.1v2.966h-1.281a6.525,6.525,0,0,1-6.525-6.523V112.268h-4.551V109.3h4.551v-3.991l3.253-1.631V109.3h4.553v2.967Z" transform="translate(-147.846 -100.992)" fill="#fff"/>
    <path id="Trazado_362" data-name="Trazado 362" d="M329.438,122.4c.109,9.034-4.211,13.477-13.208,13.585H315.9c-5.247,0-8.307-1.564-9.951-4.719v3.686H302.7V101.875h3.255v11.873c1.661-3.018,4.746-4.545,9.956-4.608C324.875,109.032,329.331,113.369,329.438,122.4Zm-3.261.039c-.086-7.115-2.966-10.337-9.923-10.337-.1,0-.2,0-.307,0-7.177.086-10.072,3.362-9.984,10.58s3.066,10.429,10.228,10.338C323.37,132.938,326.263,129.662,326.177,122.443Z" transform="translate(-126.933 -101.875)" fill="#fff"/>
    <path id="Trazado_363" data-name="Trazado 363" d="M351.073,107.451v24.772h-3.255v-3.632c-1.67,3.127-4.791,4.676-10.115,4.676-9,0-13.369-4.39-13.369-13.425V107.451h3.253v12.391h.009c0,7.219,2.927,10.453,10.106,10.453s10.107-3.234,10.107-10.453h.009V107.451Z" transform="translate(-116.338 -99.144)" fill="#fff"/>
    <path id="Trazado_364" data-name="Trazado 364" d="M373.346,107.452v16.421c0,10.852-2.288,17.58-13.677,17.58H351.5v-2.969h8.171c6.565,0,9.373-2.474,10.163-9.455-1.7,2.833-4.719,4.231-9.693,4.231h-.325c-8.995-.109-13.316-4.551-13.208-13.586v-12.22h3.262v12.26c-.088,7.218,2.805,10.495,9.984,10.58s10.154-3.118,10.24-10.337v-12.5Z" transform="translate(-105.433 -99.144)" fill="#fff"/>
    <path id="Trazado_365" data-name="Trazado 365" d="M395.2,121.654H371.815c.207,2.874.983,4.958,2.358,6.337,1.575,1.581,4.036,2.644,7.521,2.644.1,0,.194,0,.29,0,3.642-.043,6.178-1.169,7.755-2.83a6.846,6.846,0,0,0,1.281-1.977l3.321.483a10.334,10.334,0,0,1-2.236,3.739c-2.215,2.334-5.513,3.5-10.081,3.551s-7.892-1.028-10.163-3.307c-2.212-2.221-3.313-5.479-3.367-9.957-.109-9.034,4.21-13.477,13.208-13.585h.328c4.4,0,7.618,1.083,9.833,3.309,1.986,1.995,3.069,4.831,3.31,8.628.028.433.052.87.058,1.329.006.565,0,1.111-.031,1.637Zm-23.4-2.967h20.112c-.21-2.868-.985-4.946-2.358-6.325-1.616-1.624-4.186-2.687-7.812-2.644-6.617.08-9.586,2.88-9.942,8.971Z" transform="translate(-94.713 -99.487)" fill="#fff"/>
    <path id="Trazado_366" data-name="Trazado 366" d="M403.592,106.754v2.963h-.057c-7.179.086-10.081,3.364-9.994,10.581v12.271h-3.254V107.795h3.254v3.565c1.662-3.018,4.748-4.545,9.956-4.608Z" transform="translate(-84.041 -99.487)" fill="#fff"/>
  </g>
  <ellipse id="Elipse_29" data-name="Elipse 29" cx="13.363" cy="13.363" rx="13.363" ry="13.363" transform="translate(135.428 16.267)" fill="#fdbc00"/>
  <g id="Grupo_143" data-name="Grupo 143" transform="translate(147.047 21.045)">
    <g id="Grupo_133" data-name="Grupo 133">
      <g id="Grupo_132" data-name="Grupo 132">
        <g id="Grupo_131" data-name="Grupo 131">
          <rect id="Rectángulo_1947" data-name="Rectángulo 1947" width="3.487" height="3.488" fill="#fff"/>
        </g>
      </g>
    </g>
    <g id="Grupo_136" data-name="Grupo 136" transform="translate(0 4.56)">
      <g id="Grupo_135" data-name="Grupo 135">
        <g id="Grupo_134" data-name="Grupo 134">
          <rect id="Rectángulo_1948" data-name="Rectángulo 1948" width="3.487" height="3.488" fill="#fff"/>
        </g>
      </g>
    </g>
    <g id="Grupo_139" data-name="Grupo 139" transform="translate(0 9.121)">
      <g id="Grupo_138" data-name="Grupo 138">
        <g id="Grupo_137" data-name="Grupo 137">
          <rect id="Rectángulo_1949" data-name="Rectángulo 1949" width="3.487" height="3.487" fill="#fff"/>
        </g>
      </g>
    </g>
    <g id="Grupo_142" data-name="Grupo 142" transform="translate(0 13.682)">
      <g id="Grupo_141" data-name="Grupo 141">
        <g id="Grupo_140" data-name="Grupo 140">
          <rect id="Rectángulo_1950" data-name="Rectángulo 1950" width="3.487" height="3.487" fill="#fff"/>
        </g>
      </g>
    </g>
  </g>
</svg>
