<svg xmlns="http://www.w3.org/2000/svg" width="33.846" height="40" viewBox="0 0 33.846 40">
  <g id="android-logo_1_" data-name="android-logo (1)" transform="translate(-42.544 0)">
    <g id="Group_1000" data-name="Group 1000" transform="translate(42.544 0)">
      <path id="Path_3544" data-name="Path 3544" d="M44.961,179.141a2.331,2.331,0,0,0-1.713.7,2.3,2.3,0,0,0-.7,1.69v10.091a2.4,2.4,0,0,0,2.417,2.417,2.3,2.3,0,0,0,1.7-.7,2.353,2.353,0,0,0,.692-1.713V181.534a2.4,2.4,0,0,0-2.394-2.393Z" transform="translate(-42.544 -165.994)" fill="#262833"/>
      <path id="Path_3545" data-name="Path 3545" d="M139.443,3.59,141.171.517a.3.3,0,0,0-.121-.469.343.343,0,0,0-.487.14l-1.752,3.1a12.622,12.622,0,0,0-9.784,0l-1.752-3.1a.343.343,0,0,0-.487-.14.3.3,0,0,0-.121.469l1.728,3.074a10.551,10.551,0,0,0-4.186,3.6,8.866,8.866,0,0,0-1.558,5.057h22.511A8.868,8.868,0,0,0,143.6,7.193,10.592,10.592,0,0,0,139.443,3.59Zm-9.99,4.471a.929.929,0,0,1-.669.27.915.915,0,1,1,0-1.83.932.932,0,0,1,.669.27.883.883,0,0,1,0,1.29Zm10.258,0a.889.889,0,0,1-.657.27.928.928,0,0,1-.67-.27.883.883,0,0,1,0-1.29.931.931,0,0,1,.67-.27.914.914,0,0,1,.657,1.56Z" transform="translate(-116.995 0)" fill="#262833"/>
      <path id="Path_3546" data-name="Path 3546" d="M123.971,201.079a2.445,2.445,0,0,0,.779,1.83,2.634,2.634,0,0,0,1.9.751h1.8l.025,5.328a2.291,2.291,0,0,0,.73,1.713,2.436,2.436,0,0,0,1.753.7,2.466,2.466,0,0,0,1.777-.7,2.29,2.29,0,0,0,.73-1.713V203.66h3.359v5.327a2.29,2.29,0,0,0,.73,1.713,2.595,2.595,0,0,0,3.554,0,2.29,2.29,0,0,0,.73-1.713V203.66h1.826a2.607,2.607,0,0,0,1.875-.751,2.446,2.446,0,0,0,.779-1.83V185.45H123.971Z" transform="translate(-118.222 -171.405)" fill="#262833"/>
      <path id="Path_3547" data-name="Path 3547" d="M444.769,179.141a2.325,2.325,0,0,0-1.69.692,2.3,2.3,0,0,0-.7,1.7v10.091a2.331,2.331,0,0,0,.7,1.713,2.3,2.3,0,0,0,1.69.7,2.4,2.4,0,0,0,2.417-2.417V181.534a2.294,2.294,0,0,0-.7-1.7A2.354,2.354,0,0,0,444.769,179.141Z" transform="translate(-413.34 -165.994)" fill="#262833"/>
    </g>
  </g>
</svg>
