<svg xmlns="http://www.w3.org/2000/svg" width="32.809" height="40" viewBox="0 0 32.809 40">
  <g id="apple" transform="translate(-46.022)" opacity="0.3">
    <path id="Path_3548" data-name="Path 3548" d="M56.9,150.523c-5.953-.036-10.878-12.892-10.878-19.439,0-10.695,7.584-13.036,10.507-13.036a11.553,11.553,0,0,1,3.964,1.031,8.489,8.489,0,0,0,2.264.686,6.77,6.77,0,0,0,1.624-.557,12.442,12.442,0,0,1,4.895-1.252h.011a9.826,9.826,0,0,1,8.4,4.485l.612.973-.881.7a7.911,7.911,0,0,0-3.556,6.468,7.327,7.327,0,0,0,3.851,6.749c.552.351,1.123.713,1.123,1.5,0,.517-3.9,11.617-9.564,11.617a7.356,7.356,0,0,1-3.23-.829,6.263,6.263,0,0,0-2.875-.732,7.076,7.076,0,0,0-2.276.651,10.648,10.648,0,0,1-3.948.974Z" transform="translate(0 -110.523)" fill="#262833"/>
    <path id="Path_3549" data-name="Path 3549" d="M261.217,0c.119,4.291-2.949,7.267-6.014,7.081C254.7,3.657,258.267,0,261.217,0Z" transform="translate(-191.855)" fill="#262833"/>
  </g>
</svg>
