<svg id="Group_815" data-name="Group 815" xmlns="http://www.w3.org/2000/svg" width="22" height="22" viewBox="0 0 22 22">
  <g id="Group_801" data-name="Group 801">
    <path id="Path_2737" data-name="Path 2737" d="M11,0A11,11,0,1,0,22,11,11,11,0,0,0,11,0Zm6.208,17.047A8.828,8.828,0,0,1,11,19.547a8.788,8.788,0,0,1-6.208-2.5A8.492,8.492,0,0,1,2.215,10.9,8.21,8.21,0,0,1,4.792,4.9,8.97,8.97,0,0,1,11,2.462,8.936,8.936,0,0,1,17.208,4.9,8.226,8.226,0,0,1,19.785,10.9,8.492,8.492,0,0,1,17.208,17.047Z" fill="#2cacb3"/>
    <path id="Path_2738" data-name="Path 2738" d="M49.706,43.8A6.744,6.744,0,0,0,42.8,50.525a6.906,6.906,0,1,0,13.812,0A6.739,6.739,0,0,0,49.706,43.8Z" transform="translate(-38.706 -39.61)" fill="#2cacb3"/>
  </g>
  <ellipse id="Ellipse_61" data-name="Ellipse 61" cx="6.992" cy="6.992" rx="6.992" ry="6.992" transform="translate(4.008 4.008)" fill="#f7c906"/>
  <g id="Group_814" data-name="Group 814" transform="translate(10.082 6.466)">
    <g id="Group_804" data-name="Group 804">
      <g id="Group_803" data-name="Group 803">
        <g id="Group_802" data-name="Group 802">
          <rect id="Rectangle_1893" data-name="Rectangle 1893" width="1.846" height="1.846" fill="#fff"/>
        </g>
      </g>
    </g>
    <g id="Group_807" data-name="Group 807" transform="translate(0 2.41)">
      <g id="Group_806" data-name="Group 806">
        <g id="Group_805" data-name="Group 805">
          <rect id="Rectangle_1894" data-name="Rectangle 1894" width="1.846" height="1.846" fill="#fff"/>
        </g>
      </g>
    </g>
    <g id="Group_810" data-name="Group 810" transform="translate(0 4.821)">
      <g id="Group_809" data-name="Group 809">
        <g id="Group_808" data-name="Group 808">
          <rect id="Rectangle_1895" data-name="Rectangle 1895" width="1.846" height="1.846" fill="#fff"/>
        </g>
      </g>
    </g>
    <g id="Group_813" data-name="Group 813" transform="translate(0 7.231)">
      <g id="Group_812" data-name="Group 812">
        <g id="Group_811" data-name="Group 811">
          <rect id="Rectangle_1896" data-name="Rectangle 1896" width="1.846" height="1.846" fill="#fff"/>
        </g>
      </g>
    </g>
  </g>
</svg>
